{
  "accessors": [
    {
      "bufferView": 2,
      "componentType": 5126,
      "count": 65532,
      "max": [
        0.6694179773330688,
        0.6800010204315186,
        1.9168100357055664
      ],
      "min": [
        -0.5294089913368225,
        -0.8864560127258301,
        0.03424600139260292
      ],
      "type": "VEC3"
    },
    {
      "bufferView": 2,
      "byteOffset": 786384,
      "componentType": 5126,
      "count": 65532,
      "max": [
        1.0,
        1.0,
        1.0
      ],
      "min": [
        -1.0,
        -0.9999997615814209,
        -1.0
      ],
      "type": "VEC3"
    },
    {
      "bufferView": 3,
      "componentType": 5126,
      "count": 65532,
      "max": [
        0.9999992251396179,
        0.9999999403953552,
        0.9999932050704956,
        1.0
      ],
      "min": [
        -0.9999997019767761,
        -0.999986469745636,
        -1.0,
        -1.0
      ],
      "type": "VEC4"
    },
    {
      "bufferView": 1,
      "componentType": 5126,
      "count": 65532,
      "max": [
        0.9984700083732605,
        0.99931401014328
      ],
      "min": [
        0.0,
        0.0
      ],
      "type": "VEC2"
    },
    {
      "bufferView": 0,
      "componentType": 5125,
      "count": 308214,
      "type": "SCALAR"
    },
    {
      "bufferView": 2,
      "byteOffset": 1572768,
      "componentType": 5126,
      "count": 65533,
      "max": [
        0.6702380180358887,
        0.685854971408844,
        2.283139944076538
      ],
      "min": [
        -0.5294089913368225,
        -0.8901060223579407,
        0.03426999971270561
      ],
      "type": "VEC3"
    },
    {
      "bufferView": 2,
      "byteOffset": 2359164,
      "componentType": 5126,
      "count": 65533,
      "max": [
        1.0,
        1.0,
        0.9999992847442627
      ],
      "min": [
        -0.9999996423721313,
        -0.999998927116394,
        -1.0
      ],
      "type": "VEC3"
    },
    {
      "bufferView": 3,
      "byteOffset": 1048512,
      "componentType": 5126,
      "count": 65533,
      "max": [
        0.9999940991401672,
        0.9999999403953552,
        0.9999962449073792,
        1.0
      ],
      "min": [
        -0.9999942183494568,
        -0.9999692440032959,
        -1.0,
        -1.0
      ],
      "type": "VEC4"
    },
    {
      "bufferView": 1,
      "byteOffset": 524256,
      "componentType": 5126,
      "count": 65533,
      "max": [
        0.9999759793281555,
        1.0
      ],
      "min": [
        0.0,
        0.0
      ],
      "type": "VEC2"
    },
    {
      "bufferView": 0,
      "byteOffset": 1232856,
      "componentType": 5125,
      "count": 247197,
      "type": "SCALAR"
    },
    {
      "bufferView": 2,
      "byteOffset": 3145560,
      "componentType": 5126,
      "count": 3455,
      "max": [
        0.5114169716835022,
        0.636991024017334,
        0.9954230189323425
      ],
      "min": [
        -0.4571459889411926,
        -0.6111459732055664,
        0.2484769970178604
      ],
      "type": "VEC3"
    },
    {
      "bufferView": 2,
      "byteOffset": 3187020,
      "componentType": 5126,
      "count": 3455,
      "max": [
        0.9999963045120239,
        0.999974250793457,
        0.9999270439147949
      ],
      "min": [
        -0.9991127848625183,
        -0.999047040939331,
        -0.9968064427375793
      ],
      "type": "VEC3"
    },
    {
      "bufferView": 3,
      "byteOffset": 2097040,
      "componentType": 5126,
      "count": 3455,
      "max": [
        0.9999756813049316,
        0.9999260306358337,
        0.9993465542793274,
        1.0
      ],
      "min": [
        -0.9999910593032837,
        -0.9999386668205261,
        -0.9999988675117493,
        -1.0
      ],
      "type": "VEC4"
    },
    {
      "bufferView": 1,
      "byteOffset": 1048520,
      "componentType": 5126,
      "count": 3455,
      "max": [
        0.9999499917030334,
        0.9998109936714172
      ],
      "min": [
        0.0007769999792799354,
        0.007426000200212002
      ],
      "type": "VEC2"
    },
    {
      "bufferView": 0,
      "byteOffset": 2221644,
      "componentType": 5125,
      "count": 8121,
      "type": "SCALAR"
    }
  ],
  "asset": {
    "extras": {
      "author": "PAR - Arqueología y Patrimonio Virtual (https://sketchfab.com/archeo_pablo)",
      "license": "CC-BY-4.0 (http://creativecommons.org/licenses/by/4.0/)",
      "source": "https://sketchfab.com/3d-models/estatua-de-alfonso-x-jose-alcoverro-1892-55660469343a4d0e871f6553908bb10c",
      "title": "Estatua de Alfonso X  - José Alcoverro (1892)"
    },
    "generator": "Sketchfab-12.68.0",
    "version": "2.0"
  },
  "bufferViews": [
    {
      "buffer": 0,
      "byteLength": 2254128,
      "name": "floatBufferViews",
      "target": 34963
    },
    {
      "buffer": 0,
      "byteLength": 1076160,
      "byteOffset": 2254128,
      "byteStride": 8,
      "name": "floatBufferViews",
      "target": 34962
    },
    {
      "buffer": 0,
      "byteLength": 3228480,
      "byteOffset": 3330288,
      "byteStride": 12,
      "name": "floatBufferViews",
      "target": 34962
    },
    {
      "buffer": 0,
      "byteLength": 2152320,
      "byteOffset": 6558768,
      "byteStride": 16,
      "name": "floatBufferViews",
      "target": 34962
    }
  ],
  "buffers": [
    {
      "byteLength": 8711088,
      "uri": "scene.bin"
    }
  ],
  "images": [
    {
      "uri": "textures/ALFONSO_X_baseColor.jpeg"
    },
    {
      "uri": "textures/ALFONSO_X_normal.jpeg"
    }
  ],
  "materials": [
    {
      "doubleSided": true,
      "name": "ALFONSO_X",
      "normalTexture": {
        "index": 1
      },
      "pbrMetallicRoughness": {
        "baseColorTexture": {
          "index": 0
        },
        "metallicFactor": 0.0
      }
    }
  ],
  "meshes": [
    {
      "name": "Object_0",
      "primitives": [
        {
          "attributes": {
            "NORMAL": 1,
            "POSITION": 0,
            "TANGENT": 2,
            "TEXCOORD_0": 3
          },
          "indices": 4,
          "material": 0,
          "mode": 4
        }
      ]
    },
    {
      "name": "Object_1",
      "primitives": [
        {
          "attributes": {
            "NORMAL": 6,
            "POSITION": 5,
            "TANGENT": 7,
            "TEXCOORD_0": 8
          },
          "indices": 9,
          "material": 0,
          "mode": 4
        }
      ]
    },
    {
      "name": "Object_2",
      "primitives": [
        {
          "attributes": {
            "NORMAL": 11,
            "POSITION": 10,
            "TANGENT": 12,
            "TEXCOORD_0": 13
          },
          "indices": 14,
          "material": 0,
          "mode": 4
        }
      ]
    }
  ],
  "nodes": [
    {
      "children": [
        1
      ],
      "matrix": [
        1.0,
        0.0,
        0.0,
        0.0,
        0.0,
        2.220446049250313e-16,
        -1.0,
        0.0,
        0.0,
        1.0,
        2.220446049250313e-16,
        0.0,
        0.0,
        0.0,
        0.0,
        1.0
      ],
      "name": "Sketchfab_model"
    },
    {
      "children": [
        2,
        3,
        4
      ],
      "name": "alfonso_X_LP.obj.cleaner.materialmerger.gles"
    },
    {
      "mesh": 0,
      "name": "Object_2"
    },
    {
      "mesh": 1,
      "name": "Object_3"
    },
    {
      "mesh": 2,
      "name": "Object_4"
    }
  ],
  "samplers": [
    {
      "magFilter": 9729,
      "minFilter": 9987,
      "wrapS": 10497,
      "wrapT": 10497
    }
  ],
  "scene": 0,
  "scenes": [
    {
      "name": "Sketchfab_Scene",
      "nodes": [
        0
      ]
    }
  ],
  "textures": [
    {
      "sampler": 0,
      "source": 0
    },
    {
      "sampler": 0,
      "source": 1
    }
  ]
}
